<svg xmlns="http://www.w3.org/2000/svg" xmlns:xlink="http://www.w3.org/1999/xlink" version="1.0" x="0px" y="0px" viewBox="0 0 100 100" enable-background="new 0 0 100 100" xml:space="preserve"><g><path d="M50,23c11.9,0,22.2,8.5,24.6,20.3l0.5,2.3l2.3,0.1C85.6,46.2,92,53,92,61.2C92,69.9,84.9,77,76.2,77H27.5   C16.7,77,8,68.3,8,57.5c0-10,7.5-18.3,17.4-19.3L27,38l0.7-1.4C32.1,28.2,40.6,23,50,23 M50,20c-10.9,0-20.2,6.2-24.9,15.2   C13.8,36.3,5,45.9,5,57.5C5,69.9,15.1,80,27.5,80h48.8C86.6,80,95,71.6,95,61.2c0-9.9-7.7-18-17.4-18.6C74.9,29.8,63.7,20,50,20   L50,20z"></path></g></svg>