<svg xmlns="http://www.w3.org/2000/svg" xmlns:xlink="http://www.w3.org/1999/xlink" version="1.2" baseProfile="tiny" x="0px" y="0px" viewBox="0 0 128 128" xml:space="preserve"><g><path fill="none" stroke="currentColor" stroke-width="4" stroke-miterlimit="10" d="M55,90h67c2.2,0,4-1.8,4-4V16c0-2.2-1.8-4-4-4H6   c-2.2,0-4,1.8-4,4v70c0,2.2,1.8,4,4,4h7"></path><circle cx="64" cy="20" r="2"></circle><line fill="none" stroke="currentColor" stroke-width="4" stroke-miterlimit="10" x1="55" y1="106" x2="88" y2="106"></line><path fill="none" stroke="currentColor" stroke-width="4" stroke-miterlimit="10" d="M77,90l0.9,11c0,0,0,3,4,5"></path><circle fill="none" stroke="currentColor" stroke-width="4" stroke-miterlimit="10" cx="64" cy="82" r="2"></circle></g><path fill="none" stroke="currentColor" stroke-width="4" stroke-miterlimit="10" d="M22,116h24c4.4,0,8-3.6,8-8V63c0-4.4-3.6-8-8-8H22  c-4.4,0-8,3.6-8,8v45C14,112.4,17.6,116,22,116z"></path><path fill="none" stroke="currentColor" stroke-width="4" stroke-miterlimit="10" d="M34,79L34,79c2.2,0,4,1.8,4,4v15c0,2.2-1.8,4-4,4  l0,0c-2.2,0-4-1.8-4-4V83C30,80.8,31.8,79,34,79z"></path><line fill="none" stroke="currentColor" stroke-width="4" stroke-miterlimit="10" x1="34" y1="108" x2="34" y2="115"></line><line fill="none" stroke="currentColor" stroke-width="4" stroke-miterlimit="10" x1="27" y1="108" x2="27" y2="115"></line><line fill="none" stroke="currentColor" stroke-width="4" stroke-miterlimit="10" x1="41" y1="108" x2="41" y2="115"></line><circle fill="none" stroke="currentColor" stroke-width="4" stroke-miterlimit="10" cx="34" cy="67" r="4"></circle></svg>